# xmcd CD database file
#
# Track frame offsets:
#	150
#	14773
#	40135
#	60432
#	77286
#	99296
#	112208
#	136855
#	163207
#	181098
#	199363
#	216051
#
# Disc length: 3075 seconds
#
# Revision: 0
# Processed by: cddbd v1.5.2PL0 Copyright (c) Steve Scherf et al.
# Submitted via: CDex 2.04
#
DISCID=9e0c010c
DTITLE=Michiko Ogawa - Balluchon
DYEAR=2018
DGENRE=Jazz
TTITLE0=Oh Lady Be Good
TTITLE1=Love For Sale
TTITLE2=In A Sentimental Mood
TTITLE3=Do Nothing Till You Hear From Me
TTITLE4=I Got Rhythm
TTITLE5=But Not For Me
TTITLE6=Take The "A" Train
TTITLE7=C Jam Blues
TTITLE8=Smile
TTITLE9=Perdido
TTITLE10=Nobody Knows The Trouble I've Seen
TTITLE11=Lady Madonna
EXTD=YEAR: 2018
EXTT0=
EXTT1=
EXTT2=
EXTT3=
EXTT4=
EXTT5=
EXTT6=
EXTT7=
EXTT8=
EXTT9=
EXTT10=
EXTT11=
PLAYORDER=
